<svg style="display:none"
	xmlns="http://www.w3.org/2000/svg"
	xmlns:xlink="http://www.w3.org/1999/xlink" version="1.1">
	<symbol id="heart"
		xmlns="http://www.w3.org/2000/svg" viewBox="0 0 32 32">
		<path fill="currentColor" d="M29.732 4.5c-1.512-1.476-3.601-2.214-6.268-2.214-0.738 0-1.491 0.128-2.259 0.384s-1.482 0.601-2.143 1.036c-0.661 0.434-1.229 0.842-1.706 1.223s-0.928 0.786-1.357 1.214c-0.429-0.428-0.881-0.833-1.357-1.214s-1.045-0.788-1.706-1.223c-0.661-0.435-1.375-0.78-2.143-1.036s-1.521-0.384-2.259-0.384c-2.667 0-4.756 0.738-6.268 2.214s-2.268 3.524-2.268 6.143c0 0.798 0.14 1.619 0.42 2.464s0.598 1.566 0.955 2.161c0.357 0.595 0.762 1.175 1.214 1.741s0.783 0.955 0.991 1.169c0.208 0.214 0.372 0.369 0.491 0.465l11.143 10.75c0.214 0.214 0.476 0.322 0.786 0.322s0.572-0.107 0.786-0.322l11.125-10.715c2.726-2.726 4.089-5.404 4.089-8.035 0-2.619-0.756-4.667-2.268-6.142zM26.357 17l-10.357 9.982-10.375-10c-2.226-2.226-3.339-4.339-3.339-6.339 0-0.964 0.128-1.815 0.384-2.553s0.583-1.325 0.982-1.759c0.399-0.435 0.884-0.788 1.455-1.063s1.131-0.458 1.679-0.554c0.548-0.095 1.131-0.143 1.75-0.143s1.286 0.152 2 0.455c0.714 0.304 1.372 0.684 1.973 1.143s1.116 0.887 1.545 1.286c0.428 0.399 0.786 0.765 1.071 1.098 0.214 0.262 0.506 0.393 0.875 0.393s0.661-0.131 0.875-0.393c0.286-0.333 0.643-0.699 1.071-1.098s0.944-0.827 1.544-1.286c0.601-0.458 1.259-0.839 1.974-1.143s1.381-0.455 2-0.455 1.202 0.048 1.75 0.143c0.548 0.095 1.107 0.28 1.679 0.554s1.057 0.628 1.455 1.063c0.399 0.434 0.726 1.021 0.982 1.759s0.384 1.589 0.384 2.553c-0 2-1.119 4.119-3.357 6.357z"></path>
	</symbol>
	<symbol id="to-top-arrow"
		xmlns="http://www.w3.org/2000/svg" viewBox="0 0 32 32">
		<path fill="currentColor" d="M16.001 8.249l12.040 8.381c0.6 0.374 1.36 0.374 1.96 0 0.378-0.206 0.517-0.679 0.311-1.057-0.072-0.131-0.18-0.239-0.311-0.311l-13.020-9.057c-0.292-0.187-0.633-0.282-0.979-0.274-0.264-0.006-0.525 0.048-0.765 0.159-0.076 0.031-0.149 0.070-0.218 0.115l-13.018 9.057c-0.378 0.204-0.518 0.676-0.314 1.054 0.072 0.133 0.181 0.242 0.314 0.314 0.6 0.374 1.36 0.374 1.96 0l12.041-8.381zM16.001 17.422l12.040 8.367c0.6 0.374 1.36 0.374 1.96 0 0.374-0.2 0.515-0.665 0.315-1.039-0.072-0.134-0.181-0.243-0.315-0.315l-13.020-9.058c-0.291-0.191-0.632-0.291-0.979-0.288-0.263 0.001-0.523 0.054-0.765 0.159-0.076 0.044-0.144 0.086-0.218 0.13l-13.018 9.057c-0.374 0.198-0.516 0.662-0.318 1.036 0.072 0.135 0.182 0.246 0.318 0.318 0.6 0.374 1.36 0.374 1.96 0l12.041-8.367z">
		</path>
	</symbol>
	<symbol id="search"
		xmlns="http://www.w3.org/2000/svg" viewBox="0 0 16 16">
		<path fill="currentColor" d="M11.742 10.344a6.5 6.5 0 1 0-1.397 1.398h-.001c.03.04.062.078.098.115l3.85 3.85a1 1 0 0 0 1.415-1.414l-3.85-3.85a1.007 1.007 0 0 0-.115-.1zM12 6.5a5.5 5.5 0 1 1-11 0 5.5 5.5 0 0 1 11 0z"></path>
	</symbol>
	<symbol id="angle-left"
		xmlns="http://www.w3.org/2000/svg" viewBox="0 0 16 16">
		<path fill-rule="evenodd" fill="currentColor" d="M11.354 1.646a.5.5 0 0 1 0 .708L5.707 8l5.647 5.646a.5.5 0 0 1-.708.708l-6-6a.5.5 0 0 1 0-.708l6-6a.5.5 0 0 1 .708 0z"></path>
	</symbol>
	<symbol id="angle-right"
		xmlns="http://www.w3.org/2000/svg" viewBox="0 0 16 16">
		<path fill-rule="evenodd" fill="currentColor" d="M4.646 1.646a.5.5 0 0 1 .708 0l6 6a.5.5 0 0 1 0 .708l-6 6a.5.5 0 0 1-.708-.708L10.293 8 4.646 2.354a.5.5 0 0 1 0-.708z"></path>
	</symbol>
	<symbol id="country"
		xmlns="http://www.w3.org/2000/svg" viewBox="0 0 26 32">
		<path fill="currentColor" d="M25.36 1.908c-0.28-0.122-6.64-2.736-11.68 0.050-3.54 1.944-9.8 0.588-11.68 0.112v-1.022c0-0.007 0-0.016 0-0.024 0-0.556-0.446-1.008-0.999-1.018h-0.001c-0.556 0.017-1 0.471-1 1.030 0 0.004 0 0.009 0 0.013v-0.001 29.912c-0 0.003-0 0.007-0 0.010 0 0.558 0.444 1.013 0.999 1.030l0.002 0c0.554-0.009 1-0.46 1-1.016 0-0.008-0-0.017-0-0.025l0 0.001v-8.91c1.983 0.508 4.267 0.816 6.618 0.85l0.022 0c0.146 0.006 0.317 0.010 0.49 0.010 2 0 3.889-0.473 5.562-1.312l-0.072 0.033c4.14-2.292 9.94 0.024 10 0.048 0.11 0.046 0.238 0.073 0.373 0.073 0.212 0 0.409-0.067 0.57-0.181l-0.003 0.002c0.268-0.191 0.44-0.501 0.44-0.851 0-0.005-0-0.009-0-0.014v0.001-17.834c-0.001-0.431-0.262-0.801-0.633-0.963l-0.007-0.003zM24 19.274c-1.346-0.476-2.897-0.75-4.513-0.75-2.106 0-4.103 0.467-5.893 1.302l0.086-0.036c-3.54 1.946-9.8 0.6-11.68 0.116v-15.692c2.86 0.69 8.76 1.71 12.62-0.422 3.34-1.848 7.72-0.722 9.38-0.178v15.658z"></path>
	</symbol>
	<symbol id="language"
		xmlns="http://www.w3.org/2000/svg" viewBox="0 0 32 32">
		<path fill="currentColor" d="M16 0h-.011C7.158 0 0 7.159 0 15.989c0 3.383 1.051 6.521 2.844 9.105l-.035-.053-2.133 6.277 6.409-2.037a15.855 15.855 0 0 0 8.922 2.718c8.837 0 16-7.163 16-16s-7.163-16-16-16h-.006zM4.882 27.49l-.418.133.139-.409.85-2.503a13.726 13.726 0 0 1-3.229-8.87c0-7.62 6.177-13.797 13.797-13.797s13.797 6.177 13.797 13.797c0 7.62-6.177 13.797-13.797 13.797-3.244 0-6.226-1.12-8.582-2.993l.028.022zm2.94-13.533h.006a2.043 2.043 0 1 1-.006 0zm8.178 0a2.043 2.043 0 1 1 0 4.085 2.043 2.043 0 0 1 0-4.085zm8.178 0a2.043 2.043 0 1 1-.006 0h.005z"></path>
	</symbol>
	<symbol id="menu"
		xmlns="http://www.w3.org/2000/svg" viewBox="0 0 16 16">
		<path fill-rule="evenodd" d="M2.5 12a.5.5 0 0 1 .5-.5h10a.5.5 0 0 1 0 1H3a.5.5 0 0 1-.5-.5zm0-4a.5.5 0 0 1 .5-.5h10a.5.5 0 0 1 0 1H3a.5.5 0 0 1-.5-.5zm0-4a.5.5 0 0 1 .5-.5h10a.5.5 0 0 1 0 1H3a.5.5 0 0 1-.5-.5z" fill="currentColor"></path>
	</symbol>
	<symbol id="account_circle"
		xmlns="http://www.w3.org/2000/svg" viewBox="0 -960 960 960" fill="currentColor">
		<path d="M234-276q51-39 114-61.5T480-360q69 0 132 22.5T726-276q35-41 54.5-93T800-480q0-133-93.5-226.5T480-800q-133 0-226.5 93.5T160-480q0 59 19.5 111t54.5 93Zm246-164q-59 0-99.5-40.5T340-580q0-59 40.5-99.5T480-720q59 0 99.5 40.5T620-580q0 59-40.5 99.5T480-440Zm0 360q-83 0-156-31.5T197-197q-54-54-85.5-127T80-480q0-83 31.5-156T197-763q54-54 127-85.5T480-880q83 0 156 31.5T763-763q54 54 85.5 127T880-480q0 83-31.5 156T763-197q-54 54-127 85.5T480-80Zm0-80q53 0 100-15.5t86-44.5q-39-29-86-44.5T480-280q-53 0-100 15.5T294-220q39 29 86 44.5T480-160Zm0-360q26 0 43-17t17-43q0-26-17-43t-43-17q-26 0-43 17t-17 43q0 26 17 43t43 17Zm0-60Zm0 360Z"/>
	</symbol>
	<symbol id="basket"
		xmlns="http://www.w3.org/2000/svg" viewBox="0 0 16 16">
		<path fill="currentColor" d="M8 1a2.5 2.5 0 0 1 2.5 2.5V4h-5v-.5A2.5 2.5 0 0 1 8 1zm3.5 3v-.5a3.5 3.5 0 1 0-7 0V4H1v10a2 2 0 0 0 2 2h10a2 2 0 0 0 2-2V4h-3.5zM2 5h12v9a1 1 0 0 1-1 1H3a1 1 0 0 1-1-1V5z"></path>
	</symbol>
	<symbol id="user"
		xmlns="http://www.w3.org/2000/svg" viewBox="0 0 20 20">
		<path fill="currentColor" d="M12.437 11.563c-.25.25-.5.437-.812.687-1 .75-2.375.75-3.313 0a7.917 7.917 0 0 1-.812-.688l-.063.376c-.187.812-.75 1.437-1.437 1.812l-1.688.813c-1 .5-1.75 1.437-2.062 2.562l-.438 1.75h16.375l-.437-1.75c-.25-1.125-1-2-2.063-2.563L14 13.75c-.75-.375-1.25-1-1.438-1.813l-.125-.374Zm.938-1 .25 1.124c.125.5.437.876.875 1.063l1.687.875c1.313.625 2.25 1.813 2.625 3.25l.625 2.438c.063.375-.187.687-.562.687H1.125c-.375 0-.625-.313-.563-.688l.625-2.437c.375-1.438 1.313-2.625 2.625-3.25L5.5 12.75c.437-.188.75-.625.875-1.063l.25-1.124a8.39 8.39 0 0 1-1.625-5V5c0-2.75 2.25-5 5-5s5 2.25 5 5v.563a8.39 8.39 0 0 1-1.625 5Zm-5.688-.5c.375.5.813.937 1.313 1.25.562.437 1.437.437 2 0a7.223 7.223 0 0 0 2.875-5.75V5c0-2.125-1.75-3.875-3.875-3.875S6.125 2.875 6.125 5v.563c0 1.625.562 3.25 1.562 4.5Z"></path>
	</symbol>
	<symbol id="close"
		xmlns="http://www.w3.org/2000/svg" viewBox="0 0 16 16">
		<path fill="currentColor" d="M2.146 2.854a.5.5 0 1 1 .708-.708L8 7.293l5.146-5.147a.5.5 0 0 1 .708.708L8.707 8l5.147 5.146a.5.5 0 0 1-.708.708L8 8.707l-5.146 5.147a.5.5 0 0 1-.708-.708L7.293 8 2.146 2.854Z"></path>
	</symbol>
	<symbol id="favorite"
		xmlns="http://www.w3.org/2000/svg" viewBox="0 -960 960 960" fill="currentColor">
		<path d="m480-120-58-52q-101-91-167-157T150-447.5Q111-500 95.5-544T80-634q0-94 63-157t157-63q52 0 99 22t81 62q34-40 81-62t99-22q94 0 157 63t63 157q0 46-15.5 90T810-447.5Q771-395 705-329T538-172l-58 52Zm0-108q96-86 158-147.5t98-107q36-45.5 50-81t14-70.5q0-60-40-100t-100-40q-47 0-87 26.5T518-680h-76q-15-41-55-67.5T300-774q-60 0-100 40t-40 100q0 35 14 70.5t50 81q36 45.5 98 107T480-228Zm0-273Z"/>
	</symbol>
	<symbol id="home_pin"
		xmlns="http://www.w3.org/2000/svg" viewBox="0 -960 960 960" fill="currentColor">
		<path d="M360-440h80v-110h80v110h80v-190l-120-80-120 80v190Zm120 254q122-112 181-203.5T720-552q0-109-69.5-178.5T480-800q-101 0-170.5 69.5T240-552q0 71 59 162.5T480-186Zm0 106Q319-217 239.5-334.5T160-552q0-150 96.5-239T480-880q127 0 223.5 89T800-552q0 100-79.5 217.5T480-80Zm0-480Z"/>
	</symbol>
	<symbol id="call"
		xmlns="http://www.w3.org/2000/svg" viewBox="0 -960 960 960" fill="currentColor">
		<path d="M798-120q-125 0-247-54.5T329-329Q229-429 174.5-551T120-798q0-18 12-30t30-12h162q14 0 25 9.5t13 22.5l26 140q2 16-1 27t-11 19l-97 98q20 37 47.5 71.5T387-386q31 31 65 57.5t72 48.5l94-94q9-9 23.5-13.5T670-390l138 28q14 4 23 14.5t9 23.5v162q0 18-12 30t-30 12ZM241-600l66-66-17-94h-89q5 41 14 81t26 79Zm358 358q39 17 79.5 27t81.5 13v-88l-94-19-67 67ZM241-600Zm358 358Z"/>
	</symbol>
	<symbol id="local_shipping"
		xmlns="http://www.w3.org/2000/svg" viewBox="0 -960 960 960" fill="currentColor">
		<path d="M240-160q-50 0-85-35t-35-85H40v-440q0-33 23.5-56.5T120-800h560v160h120l120 160v200h-80q0 50-35 85t-85 35q-50 0-85-35t-35-85H360q0 50-35 85t-85 35Zm0-80q17 0 28.5-11.5T280-280q0-17-11.5-28.5T240-320q-17 0-28.5 11.5T200-280q0 17 11.5 28.5T240-240ZM120-360h32q17-18 39-29t49-11q27 0 49 11t39 29h272v-360H120v360Zm600 120q17 0 28.5-11.5T760-280q0-17-11.5-28.5T720-320q-17 0-28.5 11.5T680-280q0 17 11.5 28.5T720-240Zm-40-200h170l-90-120h-80v120ZM360-540Z"/>
	</symbol>
	<symbol id="pan_zoom"
		xmlns="http://www.w3.org/2000/svg" viewBox="0 -960 960 960" fill="currentColor">
		<path d="M120-120v-240h80v104l124-124 56 56-124 124h104v80H120Zm516-460-56-56 124-124H600v-80h240v240h-80v-104L636-580Z"/>
	</symbol>
	<symbol id="share"
		xmlns="http://www.w3.org/2000/svg" viewBox="0 -960 960 960" fill="currentColor">
		<path d="M720-80q-50 0-85-35t-35-85q0-7 1-14.5t3-13.5L322-392q-17 15-38 23.5t-44 8.5q-50 0-85-35t-35-85q0-50 35-85t85-35q23 0 44 8.5t38 23.5l282-164q-2-6-3-13.5t-1-14.5q0-50 35-85t85-35q50 0 85 35t35 85q0 50-35 85t-85 35q-23 0-44-8.5T638-672L356-508q2 6 3 13.5t1 14.5q0 7-1 14.5t-3 13.5l282 164q17-15 38-23.5t44-8.5q50 0 85 35t35 85q0 50-35 85t-85 35Zm0-640q17 0 28.5-11.5T760-760q0-17-11.5-28.5T720-800q-17 0-28.5 11.5T680-760q0 17 11.5 28.5T720-720ZM240-440q17 0 28.5-11.5T280-480q0-17-11.5-28.5T240-520q-17 0-28.5 11.5T200-480q0 17 11.5 28.5T240-440Zm480 280q17 0 28.5-11.5T760-200q0-17-11.5-28.5T720-240q-17 0-28.5 11.5T680-200q0 17 11.5 28.5T720-160Zm0-600ZM240-480Zm480 280Z"/>
	</symbol>
	<symbol id="sell"
		xmlns="http://www.w3.org/2000/svg" viewBox="0 -960 960 960" fill="currentColor">
		<path d="M856-390 570-104q-12 12-27 18t-30 6q-15 0-30-6t-27-18L103-457q-11-11-17-25.5T80-513v-287q0-33 23.5-56.5T160-880h287q16 0 31 6.5t26 17.5l352 353q12 12 17.5 27t5.5 30q0 15-5.5 29.5T856-390ZM513-160l286-286-353-354H160v286l353 354ZM260-640q25 0 42.5-17.5T320-700q0-25-17.5-42.5T260-760q-25 0-42.5 17.5T200-700q0 25 17.5 42.5T260-640Zm220 160Z"/>
	</symbol>
	<symbol id="check-circle"
		xmlns="http://www.w3.org/2000/svg" viewBox="0 -960 960 960" fill="currentColor">
		<path d="m424-296 282-282-56-56-226 226-114-114-56 56 170 170Zm56 216q-83 0-156-31.5T197-197q-54-54-85.5-127T80-480q0-83 31.5-156T197-763q54-54 127-85.5T480-880q83 0 156 31.5T763-763q54 54 85.5 127T880-480q0 83-31.5 156T763-197q-54 54-127 85.5T480-80Zm0-80q134 0 227-93t93-227q0-134-93-227t-227-93q-134 0-227 93t-93 227q0 134 93 227t227 93Zm0-320Z"/>
	</symbol>
	<symbol id="error"
		xmlns="http://www.w3.org/2000/svg" viewBox="0 -960 960 960" fill="currentColor">
		<path d="M480-280q17 0 28.5-11.5T520-320q0-17-11.5-28.5T480-360q-17 0-28.5 11.5T440-320q0 17 11.5 28.5T480-280Zm-40-160h80v-240h-80v240Zm40 360q-83 0-156-31.5T197-197q-54-54-85.5-127T80-480q0-83 31.5-156T197-763q54-54 127-85.5T480-880q83 0 156 31.5T763-763q54 54 85.5 127T880-480q0 83-31.5 156T763-197q-54 54-127 85.5T480-80Zm0-80q134 0 227-93t93-227q0-134-93-227t-227-93q-134 0-227 93t-93 227q0 134 93 227t227 93Zm0-320Z"/>
	</symbol>
	<symbol id="trash"
		xmlns="http://www.w3.org/2000/svg" viewBox="0 -960 960 960" fill="currentColor">
		<path d="M280-120q-33 0-56.5-23.5T200-200v-520h-40v-80h200v-40h240v40h200v80h-40v520q0 33-23.5 56.5T680-120H280Zm400-600H280v520h400v-520ZM360-280h80v-360h-80v360Zm160 0h80v-360h-80v360ZM280-720v520-520Z"/>
	</symbol>
</svg>
